<?xml version="1.0" encoding="UTF-8"?>
<svg width="1280" height="800" viewBox="0 0 1280 800" xmlns="http://www.w3.org/2000/svg">
  <!-- Browser Window -->
  <rect width="1280" height="800" fill="#f8f9fa"/>
  
  <!-- Browser Chrome -->
  <rect width="1280" height="80" fill="#ffffff" filter="drop-shadow(0 2px 4px rgba(0,0,0,0.1))"/>
  <circle cx="30" cy="40" r="10" fill="#ff5f57"/>
  <circle cx="60" cy="40" r="10" fill="#ffbd2e"/>
  <circle cx="90" cy="40" r="10" fill="#28c940"/>
  
  <!-- Address Bar -->
  <rect x="140" y="20" width="800" height="40" rx="20" fill="#f1f3f4"/>
  <text x="160" y="45" font-family="Arial, sans-serif" font-size="14" fill="#5f6368">https://example.com/article</text>
  
  <!-- Extension Icon -->
  <g transform="translate(980, 20)">
    <circle cx="20" cy="20" r="16" fill="url(#iconGrad)"/>
    <rect x="12" y="16" width="16" height="12" rx="2" fill="white" filter="drop-shadow(0 1px 2px rgba(0,0,0,0.1))"/>
    <path d="M20 12l-6 2v3c0 3.3 2.3 6.4 5.4 7.2 3.1-0.8 5.4-3.9 5.4-7.2v-3l-4.8-2z" fill="white" opacity="0.95"/>
  </g>
  
  <!-- Page Content -->
  <g transform="translate(140, 100)">
    <text x="0" y="40" font-family="Arial, sans-serif" font-size="32" font-weight="bold" fill="#202124">Example Article</text>
    <text x="0" y="80" font-family="Arial, sans-serif" font-size="16" fill="#5f6368">Published on January 16, 2025</text>
    
    <!-- Article Links -->
    <g transform="translate(0, 120)">
      <a href="#" fill="#1a73e8" text-decoration="underline">
        <text x="0" y="0" font-family="Arial, sans-serif" font-size="16" fill="#1a73e8">Learn more about web security</text>
      </a>
      
      <!-- Preview Card -->
      <g transform="translate(0, 20)">
        <rect width="300" height="200" rx="8" fill="white" filter="drop-shadow(0 4px 12px rgba(0,0,0,0.15))"/>
        <text x="16" y="32" font-family="Arial, sans-serif" font-size="14" font-weight="bold" fill="#202124">Web Security Guide</text>
        <text x="16" y="56" font-family="Arial, sans-serif" font-size="12" fill="#5f6368" width="268">Learn about the latest web security practices and how to protect yourself online...</text>
        
        <!-- Security Indicator -->
        <rect x="16" y="140" width="268" height="40" rx="4" fill="#e8f5e9"/>
        <circle cx="36" cy="160" r="12" fill="#34a853"/>
        <path d="M36 152l-6 2v3c0 3.3 2.3 6.4 5.4 7.2 3.1-0.8 5.4-3.9 5.4-7.2v-3l-4.8-2z" fill="white"/>
        <text x="56" y="164" font-family="Arial, sans-serif" font-size="12" fill="#1b5e20">This link appears to be safe</text>
      </g>
    </g>
  </g>
  
  <!-- Gradients -->
  <defs>
    <linearGradient id="iconGrad" x1="0%" y1="0%" x2="100%" y2="100%">
      <stop offset="0%" style="stop-color:#4285f4;stop-opacity:1" />
      <stop offset="100%" style="stop-color:#34a853;stop-opacity:1" />
    </linearGradient>
  </defs>
</svg> 